<svg width="21" height="20" viewBox="0 0 21 20" fill="none" xmlns="http://www.w3.org/2000/svg">
<g clip-path="url(#clip0_361_1264)">
<path d="M10.6064 14.5001C8.23606 14.5001 6.31731 12.6654 6.14075 10.3404L2.86263 7.80696C2.43169 8.34758 2.03513 8.91914 1.71513 9.54414C1.64364 9.68555 1.60639 9.84179 1.60639 10.0002C1.60639 10.1587 1.64364 10.3149 1.71513 10.4563C3.40981 13.7629 6.76481 16.0001 10.6064 16.0001C11.4473 16.0001 12.2586 15.8751 13.0404 15.6732L11.4189 14.4185C11.1511 14.4703 10.8791 14.4976 10.6064 14.5001ZM20.4133 16.3157L16.9586 13.6457C18.008 12.7613 18.8711 11.677 19.4976 10.456C19.5691 10.3146 19.6064 10.1584 19.6064 9.99993C19.6064 9.84147 19.5691 9.68524 19.4976 9.54383C17.8029 6.23727 14.4479 4.00008 10.6064 4.00008C8.99747 4.00203 7.41469 4.40707 6.00263 5.17821L2.027 2.10539C1.97516 2.06505 1.91588 2.03532 1.85254 2.0179C1.7892 2.00048 1.72305 1.99571 1.65787 2.00387C1.59269 2.01202 1.52975 2.03294 1.47266 2.06543C1.41557 2.09792 1.36543 2.14134 1.32513 2.19321L0.71169 2.98289C0.630315 3.08758 0.593851 3.2203 0.610318 3.35186C0.626786 3.48342 0.694836 3.60306 0.799503 3.68446L19.1858 17.8948C19.2376 17.9351 19.2969 17.9648 19.3602 17.9823C19.4236 17.9997 19.4897 18.0045 19.5549 17.9963C19.6201 17.9881 19.683 17.9672 19.7401 17.9347C19.7972 17.9022 19.8473 17.8588 19.8876 17.807L20.5014 17.0173C20.5827 16.9125 20.6191 16.7798 20.6026 16.6482C20.5861 16.5167 20.518 16.3971 20.4133 16.3157ZM14.672 11.8782L13.4439 10.9288C13.5473 10.6299 13.6022 10.3164 13.6064 10.0001C13.6125 9.53704 13.5099 9.07902 13.3069 8.66281C13.1038 8.24661 12.806 7.88382 12.4374 7.60359C12.0687 7.32336 11.6394 7.13349 11.1841 7.04925C10.7287 6.96501 10.26 6.98873 9.81544 7.11852C10.0039 7.37386 10.1058 7.68273 10.1064 8.00008C10.1017 8.10569 10.0856 8.21047 10.0583 8.31258L7.75794 6.53477C8.557 5.86702 9.56504 5.50085 10.6064 5.50008C11.1974 5.49975 11.7827 5.61592 12.3288 5.84195C12.875 6.06798 13.3712 6.39944 13.7891 6.81737C14.207 7.2353 14.5385 7.7315 14.7645 8.27762C14.9905 8.82373 15.1067 9.40904 15.1064 10.0001C15.1064 10.676 14.9411 11.306 14.672 11.8785V11.8782Z" fill="#22668D"/>
</g>
<defs>
<clipPath id="clip0_361_1264">
<rect width="20" height="20" fill="white" transform="translate(0.606445)"/>
</clipPath>
</defs>
</svg>
