<svg width="26" height="26" viewBox="0 0 26 26" fill="none" xmlns="http://www.w3.org/2000/svg">
<path d="M11.0166 23.4997C11.2119 23.8549 11.499 24.1511 11.8479 24.3574C12.1968 24.5637 12.5947 24.6726 13 24.6726C13.4053 24.6726 13.8032 24.5637 14.1521 24.3574C14.501 24.1511 14.788 23.8549 14.9833 23.4997M3.66665 1.33301C2.26665 3.31634 1.33331 5.64967 1.33331 8.33301M24.6666 8.33301C24.6666 5.64967 23.7333 3.31634 22.3333 1.33301M5.99998 8.33301C5.99998 6.47649 6.73748 4.69601 8.05023 3.38326C9.36299 2.07051 11.1435 1.33301 13 1.33301C14.8565 1.33301 16.637 2.07051 17.9497 3.38326C19.2625 4.69601 20 6.47649 20 8.33301C20 16.4997 23.5 18.833 23.5 18.833H2.49998C2.49998 18.833 5.99998 16.4997 5.99998 8.33301Z" stroke="#22668D" stroke-width="2.5" stroke-linecap="round" stroke-linejoin="round"/>
</svg>
