<svg width="17" height="17" viewBox="0 0 17 17" fill="none" xmlns="http://www.w3.org/2000/svg">
<path d="M14.875 6.90625H10.0938V2.125C10.0938 1.5383 9.61795 1.0625 9.03125 1.0625H7.96875C7.38205 1.0625 6.90625 1.5383 6.90625 2.125V6.90625H2.125C1.5383 6.90625 1.0625 7.38205 1.0625 7.96875V9.03125C1.0625 9.61795 1.5383 10.0938 2.125 10.0938H6.90625V14.875C6.90625 15.4617 7.38205 15.9375 7.96875 15.9375H9.03125C9.61795 15.9375 10.0938 15.4617 10.0938 14.875V10.0938H14.875C15.4617 10.0938 15.9375 9.61795 15.9375 9.03125V7.96875C15.9375 7.38205 15.4617 6.90625 14.875 6.90625Z" fill="#747678"/>
</svg>
