<svg width="36" height="32" viewBox="0 0 36 32" fill="none" xmlns="http://www.w3.org/2000/svg">
<path d="M18.5 6.5L18.9 30C19.0166 30.121 21.3454 11.9343 21.5 12C21.6546 12.0657 15.332 13 15.5 13C15.668 13 18.3344 6.38197 18.489 6.31624C18.6436 6.25052 17.8834 6.12098 18 6L18.5 6.5ZM9.66837 23.3666C9.412 23.1558 4.42708 14.4678 4.09671 14.5C3.76633 14.5322 3.81089 18.5919 3.60004 18.8483C3.38919 19.1047 1.87118 18.0213 1.90337 18.3516C2.02296 18.9655 7.87842 25.272 8.07837 25.3C8.69931 24.545 9.66837 23.3666 9.66837 23.3666ZM1.90337 18.3516C1.98217 18.4957 2.08855 18.6227 2.21646 18.7256C2.34437 18.8285 2.49129 18.9052 2.64884 18.9514C2.80639 18.9975 2.97149 19.0121 3.13469 18.9944C3.2979 18.9768 3.45602 18.9271 3.60004 18.8483C3.74406 18.7695 3.87114 18.6631 3.97404 18.5352C4.07695 18.4073 4.15365 18.2604 4.19977 18.1028C4.24588 17.9453 4.26052 17.7802 4.24284 17.617C4.22516 17.4538 4.1755 17.2957 4.09671 17.1516C4.09671 17.1516 2.75992 17.883 1.90337 18.3516ZM9.87794 23.5383C9.87794 19.955 10.235 29.265 13 28C17.5 32.5 15.47 26.4367 18.9 30V4.30164C14.8334 0.0733104 10.1067 -0.625023 6.33337 1.09998C2.64337 2.78831 0.083374 6.70831 0.083374 11.2283L9.87794 23.5383ZM12.1617 28.5C13.0167 29.1733 13.9334 29.89 14.8617 30.4333C15.79 30.975 16.85 31.4166 18 31.4166V30.1666V28.9166C17.4834 28.9166 16.8767 28.7166 16.1234 28.275C15.3684 27.835 14.5867 27.2283 13.71 26.5366L12.1617 28.5ZM23.8384 28.5C26.215 26.625 29.255 24.4783 31.6384 21.7933C34.0667 19.06 35.9167 15.6716 35.9167 11.2283L18 30C18 33.6617 19.2467 16.4283 17.1 18.8483C14.9084 21.315 19.6267 23.3083 17.1 25.3L23.8384 28.5ZM35.9167 11.2283C35.9167 6.70831 33.3584 2.78831 29.6667 1.09998C25.8934 -0.625023 21.17 0.0733104 17.1 4.29998L16 13.5L18 6C17.5 6 6.83268 21.8593 9.51935 23.0876C8.61935 26.5876 18 26.415 18 30L35.9167 11.2283ZM17.1 25.3C16.2234 25.9916 18.755 27.0766 18 27.5166C17.2467 27.9566 18.5167 28.9166 18 28.9166V30.1666V31.4166C19.15 31.4166 20.21 30.975 21.1384 30.4333C22.0684 29.89 22.9834 29.1733 23.8384 28.5L17.1 25.3ZM13.71 26.5366C12.3834 25.4916 11.035 24.4916 9.66837 23.3666C9.66837 23.3666 8.69931 24.545 8.07837 25.3C9.46171 26.4383 10.925 27.525 12.1617 28.5L13.7117 26.5366H13.71ZM4.09671 17.1533C3.09272 15.3407 9.86616 25.6104 9.87794 23.5383L0.083374 11.2283C0.083374 13.9583 0.783374 16.305 1.90337 18.3516C2.75992 17.883 4.09671 17.1516 4.09671 17.1516V17.1533Z" fill="#BB0000"/>
</svg>
