<svg width="21" height="21" viewBox="0 0 21 21" fill="none" xmlns="http://www.w3.org/2000/svg">
<path d="M20.7129 18.1576L16.6236 14.0684C16.4391 13.8838 16.1889 13.7813 15.9264 13.7813H15.2578C16.3898 12.3334 17.0625 10.5123 17.0625 8.53125C17.0625 3.81855 13.2439 0 8.53125 0C3.81855 0 0 3.81855 0 8.53125C0 13.2439 3.81855 17.0625 8.53125 17.0625C10.5123 17.0625 12.3334 16.3898 13.7812 15.2578V15.9264C13.7812 16.1889 13.8838 16.4391 14.0684 16.6236L18.1576 20.7129C18.5432 21.0984 19.1666 21.0984 19.548 20.7129L20.7088 19.5522C21.0943 19.1666 21.0943 18.5432 20.7129 18.1576ZM8.53125 13.7813C5.63144 13.7813 3.28125 11.4352 3.28125 8.53125C3.28125 5.63145 5.62734 3.28125 8.53125 3.28125C11.4311 3.28125 13.7812 5.62734 13.7812 8.53125C13.7812 11.4311 11.4352 13.7813 8.53125 13.7813Z" fill="white"/>
</svg>
