<svg width="18" height="18" viewBox="0 0 18 18" fill="none" xmlns="http://www.w3.org/2000/svg">
<g clip-path="url(#clip0_932_807)">
<path d="M4.53018 5.829C2.68518 6.24675 1.76268 6.45525 1.54293 7.161C1.32393 7.866 1.95243 8.60175 3.21018 10.0725L3.53568 10.4528C3.89268 10.8705 4.07193 11.0797 4.15218 11.3377C4.23243 11.5965 4.20543 11.8755 4.15143 12.4327L4.10193 12.9405C3.91218 14.9032 3.81693 15.8843 4.39143 16.32C4.96593 16.7565 5.82993 16.3582 7.55643 15.5632L8.00418 15.3577C8.49468 15.1312 8.73993 15.0187 9.00018 15.0187C9.26043 15.0187 9.50568 15.1312 9.99693 15.3577L10.4432 15.5632C12.1704 16.3582 13.0344 16.7557 13.6082 16.3207C14.1834 15.8842 14.0882 14.9032 13.8984 12.9405M14.7902 10.0725C16.0479 8.6025 16.6764 7.86675 16.4574 7.161C16.2377 6.45525 15.3152 6.246 13.4702 5.829L12.9932 5.721C12.4689 5.6025 12.2072 5.54325 11.9964 5.3835C11.7864 5.22375 11.6514 4.9815 11.3814 4.497L11.1354 4.056C10.1852 2.352 9.71043 1.5 9.00018 1.5C8.28993 1.5 7.81518 2.352 6.86493 4.056" stroke="#213346" stroke-width="1.5" stroke-linecap="round"/>
</g>
<defs>
<clipPath id="clip0_932_807">
<rect width="18" height="18" fill="white"/>
</clipPath>
</defs>
</svg>
