<svg width="37" height="37" viewBox="0 0 37 37" fill="none" xmlns="http://www.w3.org/2000/svg">
<path d="M9.3117 11.982C5.5192 12.8407 3.62295 13.2693 3.17125 14.72C2.72108 16.1692 4.013 17.6815 6.59837 20.7047L7.26745 21.4864C8.00129 22.3451 8.36975 22.7752 8.5347 23.3055C8.69966 23.8374 8.64416 24.4109 8.53316 25.5564L8.43141 26.6001C8.04137 30.6346 7.84558 32.6511 9.0265 33.5468C10.2074 34.4441 11.9834 33.6255 15.5323 31.9913L16.4527 31.5689C17.461 31.1033 17.9651 30.872 18.5 30.872C19.035 30.872 19.5391 31.1033 20.5489 31.5689L21.4662 31.9913C25.0167 33.6255 26.7927 34.4425 27.972 33.5484C29.1545 32.6511 28.9587 30.6346 28.5687 26.6001M30.4017 20.7047C32.9871 17.6831 34.279 16.1707 33.8288 14.72C33.3771 13.2693 31.4809 12.8392 27.6884 11.982L26.7079 11.76C25.6302 11.5164 25.0922 11.3946 24.659 11.0662C24.2273 10.7379 23.9498 10.2399 23.3948 9.244L22.8892 8.3375C20.9359 4.83483 19.96 3.0835 18.5 3.0835C17.0401 3.0835 16.0642 4.83483 14.1109 8.3375" fill="#FFCC70"/>
<path d="M9.3117 11.982C5.5192 12.8407 3.62295 13.2693 3.17125 14.72C2.72108 16.1692 4.013 17.6815 6.59837 20.7047L7.26745 21.4864C8.00129 22.3451 8.36975 22.7752 8.5347 23.3055C8.69966 23.8374 8.64416 24.4109 8.53316 25.5564L8.43141 26.6001C8.04137 30.6346 7.84558 32.6511 9.0265 33.5468C10.2074 34.4441 11.9834 33.6255 15.5323 31.9913L16.4527 31.5689C17.461 31.1033 17.9651 30.872 18.5 30.872C19.035 30.872 19.5391 31.1033 20.5489 31.5689L21.4662 31.9913C25.0167 33.6255 26.7927 34.4425 27.972 33.5484C29.1545 32.6511 28.9587 30.6346 28.5687 26.6001M9.3117 11.982L10.5 11.76L12.5 11.0662L13.5 9.244L14.1109 8.3375M9.3117 11.982L28.5687 26.6001M9.3117 11.982L30.4017 20.7047M28.5687 26.6001V25.5564L29 23.3055L30 21.4864L30.4017 20.7047M30.4017 20.7047C32.9871 17.6831 34.279 16.1707 33.8288 14.72C33.3771 13.2693 31.4809 12.8392 27.6884 11.982L26.7079 11.76C25.6302 11.5164 25.0922 11.3946 24.659 11.0662C24.2273 10.7379 23.9498 10.2399 23.3948 9.244L22.8892 8.3375C20.9359 4.83483 19.96 3.0835 18.5 3.0835C17.0401 3.0835 16.0642 4.83483 14.1109 8.3375M30.4017 20.7047L14.1109 8.3375M12.5 12.5L15 10.5L16.4527 12.5L14.5 13L14.1109 11.982H15L13.5 13L18 14.72L19 14L17.5 13H16.4527L23.3948 17L17.5 16.5L25 20L29 22L26.7079 20L27.3132 24.5M27.3132 24.5L27.972 25L29.5 21L14.1109 9.244L11.5 12.5L27.3132 24.5ZM28.5687 22H27.6884L27.972 23L21.4662 19L14.5 20" stroke="#FFCC70" stroke-width="1.5" stroke-linecap="round"/>
</svg>
