<svg width="18" height="18" viewBox="0 0 18 18" fill="none" xmlns="http://www.w3.org/2000/svg">
<path d="M1.5 7.52818L2.1225 7.47485C2.10815 7.31478 2.0327 7.16639 1.9118 7.06049C1.79091 6.9546 1.63387 6.89935 1.4733 6.90621C1.31273 6.91308 1.16098 6.98153 1.04957 7.09736C0.938149 7.21318 0.875632 7.36747 0.875 7.52818H1.5ZM15.8633 9.04735L15.275 12.4473L16.5075 12.6607L17.095 9.26068L15.8633 9.04735ZM10.0375 16.7082H6.16333V17.9582H10.0375V16.7082ZM5.40417 16.0107L4.7275 8.18318L3.48167 8.29068L4.15917 16.1182L5.40417 16.0107ZM15.275 12.4473C14.8525 14.889 12.6508 16.7082 10.0375 16.7082V17.9582C13.2258 17.9582 15.9758 15.734 16.5075 12.6607L15.275 12.4473ZM10.0458 3.24985L9.49333 6.62068L10.7267 6.82235L11.2792 3.45235L10.0458 3.24985ZM4.99 7.53818L6.18917 6.50485L5.3725 5.55818L4.175 6.59152L4.99 7.53818ZM8.37 3.14318L8.76667 1.61485L7.55667 1.30152L7.16 2.82902L8.37 3.14318ZM9.365 1.31485L9.48583 1.35402L9.86833 0.164017L9.7475 0.124851L9.365 1.31485ZM7.76917 4.67985C8.02948 4.19318 8.23116 3.67735 8.37 3.14318L7.16 2.82902C7.04607 3.26788 6.88047 3.69168 6.66667 4.09152L7.76917 4.67985ZM9.48583 1.35402C9.60474 1.39005 9.71261 1.45554 9.79944 1.54441C9.88626 1.63328 9.94923 1.74264 9.9825 1.86235L11.1925 1.54902C11.1064 1.22527 10.9398 0.928543 10.7083 0.686403C10.4768 0.444264 10.1879 0.264569 9.86833 0.164017L9.48583 1.35402ZM8.76667 1.61485C8.78328 1.55483 8.81275 1.49914 8.85304 1.45165C8.89334 1.40416 8.94348 1.36601 9 1.33985L8.4575 0.214017C8.01417 0.427351 7.68083 0.822351 7.55667 1.30152L8.76667 1.61485ZM9 1.33985C9.11405 1.28538 9.24458 1.27644 9.365 1.31485L9.7475 0.124851C9.32193 -0.0115497 8.86026 0.0203614 8.4575 0.214017L9 1.33985ZM10.795 8.15318H15.1117V6.90318H10.795V8.15318ZM2.9325 16.8382L2.1225 7.47485L0.8775 7.58235L1.68583 16.9457L2.9325 16.8382ZM2.125 16.9273V7.52818H0.875V16.9273H2.125ZM1.68583 16.9457C1.68329 16.9154 1.68791 16.8849 1.69778 16.8562C1.70765 16.8274 1.72339 16.8011 1.744 16.7787C1.76461 16.7564 1.78964 16.7386 1.8175 16.7264C1.84536 16.7143 1.87544 16.7081 1.90583 16.7082V17.9582C2.51083 17.9582 2.98417 17.4398 2.9325 16.8382L1.68583 16.9457ZM11.2792 3.45235C11.3831 2.81879 11.3536 2.17051 11.1925 1.54902L9.9825 1.86318C10.0999 2.31595 10.1215 2.78826 10.0458 3.24985L11.2792 3.45235ZM6.16333 16.7082C5.97251 16.7079 5.78873 16.6361 5.64821 16.507C5.50769 16.3779 5.42062 16.2008 5.40417 16.0107L4.15917 16.1182C4.20253 16.62 4.4324 17.0873 4.80342 17.4279C5.17444 17.7686 5.65966 17.9578 6.16333 17.9582V16.7082ZM6.18917 6.50485C6.75583 6.01652 7.36583 5.43568 7.77 4.67985L6.66667 4.09152C6.37833 4.63235 5.91917 5.08818 5.3725 5.55818L6.18917 6.50485ZM17.095 9.26068C17.1452 8.97151 17.1315 8.67486 17.055 8.39151C16.9784 8.10817 16.8409 7.84499 16.6519 7.6204C16.463 7.39581 16.2272 7.21524 15.9612 7.09135C15.6951 6.96746 15.4052 6.90324 15.1117 6.90318V8.15318C15.5842 8.15318 15.945 8.57985 15.8633 9.04735L17.095 9.26068ZM1.90583 16.7082C2.0275 16.7082 2.125 16.8065 2.125 16.9273H0.875C0.875 17.4957 1.33583 17.9582 1.90583 17.9582V16.7082ZM9.49333 6.62068C9.46227 6.8095 9.47265 7.00281 9.52376 7.18722C9.57488 7.37162 9.6655 7.54269 9.78933 7.68857C9.91317 7.83445 10.0673 7.95164 10.2409 8.03201C10.4146 8.11239 10.6036 8.15318 10.795 8.15318V6.90318C10.7848 6.90323 10.7748 6.90187 10.7656 6.89758C10.7563 6.8933 10.7482 6.88704 10.7416 6.87924C10.7351 6.87144 10.7304 6.8623 10.7278 6.85247C10.7252 6.84263 10.7248 6.83235 10.7267 6.82235L9.49333 6.62068ZM4.7275 8.18318C4.7172 8.0625 4.73487 7.9411 4.78065 7.82897C4.82643 7.71683 4.89818 7.61717 4.99 7.53818L4.17333 6.59068C3.93168 6.79904 3.74296 7.06181 3.62271 7.35736C3.50247 7.65292 3.45412 7.9728 3.48167 8.29068L4.7275 8.18318Z" fill="#4ECB71"/>
</svg>
