<svg width="36" height="32" viewBox="0 0 36 32" fill="none" xmlns="http://www.w3.org/2000/svg">
<path d="M18.0002 5.16664L17.1002 6.03331C17.2168 6.15429 17.3566 6.25052 17.5112 6.31624C17.6658 6.38197 17.8321 6.41584 18.0002 6.41584C18.1682 6.41584 18.3345 6.38197 18.4891 6.31624C18.6438 6.25052 18.7836 6.15429 18.9002 6.03331L18.0002 5.16664ZM9.6685 23.3666C9.41212 23.1558 9.08249 23.0554 8.75211 23.0876C8.42173 23.1198 8.11768 23.2819 7.90683 23.5383C7.69598 23.7947 7.59562 24.1243 7.62781 24.4547C7.66 24.7851 7.82212 25.0891 8.0785 25.3L9.6685 23.3666ZM1.9035 18.3516C1.98229 18.4957 2.08868 18.6227 2.21658 18.7256C2.34449 18.8285 2.49142 18.9052 2.64897 18.9514C2.80652 18.9975 2.97161 19.0121 3.13481 18.9944C3.29802 18.9768 3.45615 18.9271 3.60016 18.8483C3.74418 18.7695 3.87127 18.6631 3.97417 18.5352C4.07707 18.4073 4.15377 18.2604 4.19989 18.1028C4.24601 17.9453 4.26064 17.7802 4.24296 17.617C4.22528 17.4538 4.17562 17.2957 4.09683 17.1516L1.9035 18.3516ZM2.5835 11.2283C2.5835 7.64498 4.6085 4.63831 7.3735 3.37331C10.0602 2.14498 13.6702 2.46998 17.1002 6.03331L18.9002 4.30164C14.8335 0.0733103 10.1068 -0.625023 6.3335 1.09998C2.6435 2.78831 0.0834961 6.70831 0.0834961 11.2283H2.5835ZM12.1618 28.5C13.0168 29.1733 13.9335 29.89 14.8618 30.4333C15.7902 30.975 16.8502 31.4166 18.0002 31.4166V28.9166C17.4835 28.9166 16.8768 28.7166 16.1235 28.275C15.3685 27.835 14.5868 27.2283 13.7102 26.5366L12.1618 28.5ZM23.8385 28.5C26.2152 26.625 29.2552 24.4783 31.6385 21.7933C34.0668 19.06 35.9168 15.6716 35.9168 11.2283H33.4168C33.4168 14.89 31.9168 17.7133 29.7702 20.1333C27.5785 22.6 24.8168 24.545 22.2902 26.5366L23.8385 28.5ZM35.9168 11.2283C35.9168 6.70831 33.3585 2.78831 29.6668 1.09998C25.8935 -0.625023 21.1702 0.0733103 17.1002 4.29998L18.9002 6.03331C22.3302 2.47164 25.9402 2.14498 28.6268 3.37331C31.3918 4.63831 33.4168 7.64331 33.4168 11.2283H35.9168ZM22.2902 26.5366C21.4135 27.2283 20.6318 27.835 19.8768 28.275C19.1235 28.715 18.5168 28.9166 18.0002 28.9166V31.4166C19.1502 31.4166 20.2102 30.975 21.1385 30.4333C22.0685 29.89 22.9835 29.1733 23.8385 28.5L22.2902 26.5366ZM13.7102 26.5366C12.3835 25.4916 11.0352 24.4916 9.6685 23.3666L8.0785 25.3C9.46183 26.4383 10.9252 27.525 12.1618 28.5L13.7118 26.5366H13.7102ZM4.09683 17.1533C3.09284 15.3407 2.57172 13.3004 2.5835 11.2283H0.0834961C0.0834961 13.9583 0.783496 16.305 1.9035 18.3516L4.09683 17.1516V17.1533Z" fill="#213346"/>
</svg>
